<?xml version="1.0" encoding="UTF-8"?>
<svg id="Layer_1" data-name="Layer 1" xmlns="http://www.w3.org/2000/svg" viewBox="0 0 361.05 297.98">
  <defs>
    <style>
      .cls-1 {
        stroke-width: .44px;
      }

      .cls-1, .cls-2 {
        fill: none;
        stroke: #010101;
        stroke-linecap: round;
        stroke-linejoin: round;
      }

      .cls-2 {
        stroke-width: 2.22px;
      }
    </style>
  </defs>
  <g>
    <line class="cls-1" x1="255.15" y1="91.43" x2="255.16" y2="81.64"/>
    <path class="cls-1" d="M353.63,49.63c-.77,1.03-2.19,3.07-4.49,4.18s-4.34,1.41-6.81,1.95c-3.47,.76-6.97,1.32-10.48,1.85-3.91,.58-7.83,1.12-11.75,1.66-12,1.67-23.99,3.35-35.99,5.02-24,3.35-48,6.7-72,10.05-12,1.68-24.01,3.35-36.01,5.03-5.65,.79-11.3,1.58-16.97,2.22-6.38,.72-12.76,1.26-19.16,1.61-11.92,.64-24.43,.61-36.35-.26-6.89-.5-13.72-1.29-20.52-2.52-5.26-.95-10.08-2.12-15.25-3.45"/>
    <line class="cls-1" x1="67.83" y1="76.98" x2="18.58" y2="64.36"/>
    <path class="cls-1" d="M18.58,64.36c-3.31-.85-4.84-1.08-8.08-2.21-1.62-.56-3.18-1.12-4.72-2.03-1.83-1.08-3.92-3.15-3.98-3.63"/>
    <path class="cls-1" d="M253.57,93.01c.44,.1,.86-.09,1.14-.41,.28-.32,.43-.75,.43-1.17"/>
    <path class="cls-1" d="M255.16,81.64c0-.59-.31-1.22-.94-1.36"/>
    <line class="cls-1" x1="256.86" y1="81.84" x2="256.85" y2="90.71"/>
    <path class="cls-1" d="M254.22,80.28c-.1-.02-.2-.03-.31,0"/>
    <line class="cls-1" x1="18.42" y1="258.2" x2="66.33" y2="280.3"/>
    <line class="cls-1" x1="177.71" y1="285.06" x2="324.24" y2="248.22"/>
    <path class="cls-1" d="M66.33,280.3c4.44,2.05,8.51,3.86,13.13,5.47,4.5,1.57,9.05,2.8,13.71,3.77,9.19,1.92,18.9,2.84,28.27,3,9.54,.16,18.94-.42,28.39-1.72,10.12-1.4,17.98-3.27,27.87-5.75"/>
    <path class="cls-1" d="M254.22,80.79c-.52,.08-.78,.68-.78,1.13"/>
    <line class="cls-1" x1="253.43" y1="91.73" x2="253.44" y2="81.92"/>
    <path class="cls-1" d="M71.69,59.84c4.48,1.06,8.96,2.08,13.5,2.89,4.54,.81,9.09,1.44,13.67,1.92,9.17,.97,18.34,1.41,27.56,1.48,9.22,.07,18.41-.24,27.6-.91,9.88-.72,17.63-1.68,27.44-2.96"/>
    <path class="cls-1" d="M71.7,48.86c-9.1-2.08-18.21-4.15-27.32-6.21-9.1-2.07-18.21-4.13-27.31-6.19"/>
    <path class="cls-1" d="M332.69,32.36c4.75-.59,9.49-1.17,14.21-1.96,2.36-.4,4.7-.83,7.02-1.44,1.16-.3,2.3-.64,3.41-1.1,.69-.29,1.36-.59,1.94-1.08,.33-.27,.66-.65,.66-1.13"/>
    <path class="cls-1" d="M260.28,41.37c12.07-1.51,24.14-3.01,36.21-4.51,12.07-1.5,24.14-3.01,36.2-4.5"/>
    <line class="cls-1" x1="181.46" y1="62.27" x2="332.58" y2="42.59"/>
    <path class="cls-1" d="M253.57,93.01c-.96-.19-1.36-1.08-1.35-1.78"/>
    <path class="cls-1" d="M253.92,80.27c-.96,.19-1.69,1.13-1.69,2.17"/>
    <line class="cls-1" x1="251.43" y1="82.64" x2="251.42" y2="91.54"/>
    <path class="cls-1" d="M256.86,81.84c0-.8-.21-1.67-.73-2.32-.54-.67-1.34-1-2.2-.78-1.66,.42-2.49,2.39-2.5,3.9"/>
    <path class="cls-1" d="M251.42,91.54c0,.8,.21,1.66,.74,2.31,.54,.67,1.35,.99,2.2,.76,1.65-.43,2.48-2.4,2.49-3.9"/>
    <path class="cls-1" d="M254.22,80.79c.53-.08,.78,.46,.78,.9"/>
    <path class="cls-1" d="M254.99,91.49c0,.43-.24,.99-.71,1.12-.55,.15-.84-.4-.84-.88"/>
    <line class="cls-1" x1="255" y1="81.7" x2="254.99" y2="91.49"/>
    <path class="cls-1" d="M71.69,59.84c-1.74-.41-3.48-.83-5.22-1.24"/>
    <path class="cls-1" d="M1.11,30.28c0,.77,.75,1.34,1.28,1.69,.62,.41,1.28,.72,1.96,1,1.36,.57,2.76,1,4.17,1.4,2.83,.8,5.69,1.44,8.55,2.09"/>
    <path class="cls-1" d="M332.58,42.59c4.76-.62,9.52-1.23,14.26-2.06,2.37-.42,4.72-.88,7.04-1.51,1.16-.32,2.3-.67,3.41-1.15,.51-.22,.87-.4,1.26-.68"/>
    <path class="cls-1" d="M181.37,51.22c26.3-3.29,52.6-6.57,78.9-9.85"/>
    <path class="cls-1" d="M2.33,245.4c.02,3.59,4.14,6.45,6.54,7.94,3.06,1.89,6.3,3.36,9.54,4.86"/>
    <path class="cls-1" d="M71.7,48.86c4.48,1.02,8.97,2,13.5,2.78,4.53,.78,9.08,1.39,13.66,1.85,9.16,.94,18.32,1.36,27.52,1.43,9.21,.07,18.38-.21,27.56-.86,9.96-.7,17.53-1.6,27.42-2.84"/>
    <line class="cls-1" x1="252.23" y1="82.44" x2="252.22" y2="91.23"/>
    <path class="cls-1" d="M324.24,248.22c5.24-1.32,10.47-2.61,15.57-4.44,2.55-.92,5.02-1.93,7.36-3.36,1.95-1.19,4.77-3.31,4.8-6.11"/>
    <path class="cls-1" d="M2.33,245.4s0,0,0,0"/>
  </g>
  <g>
    <line class="cls-2" x1="68.8" y1="284.75" x2="20.86" y2="262.48"/>
    <path class="cls-2" d="M20.86,262.48c-3.8-1.77-8.23-3.81-11.69-6.28-3.47-2.48-6.81-6.01-6.84-10.8"/>
    <path class="cls-2" d="M351.96,234.31c-.03,3.3-1.79,6.04-4.15,8.09-2.32,2.01-5.31,3.51-8.09,4.66-5.46,2.25-12.27,3.96-17.95,5.4"/>
    <g>
      <path class="cls-2" d="M353.72,49.35c-.05,.74-.33,1.38-.73,1.92"/>
      <path class="cls-2" d="M352.98,51.27c.43,.64,.66,1.25,.65,2.03"/>
      <path class="cls-2" d="M353.63,53.36c-.56,60.32-1.11,120.64-1.67,180.96"/>
      <path class="cls-2" d="M353.63,53.36c-.56,60.32-1.11,120.64-1.67,180.96"/>
      <g>
        <path class="cls-2" d="M357.74,22.25c1.17,.75,2.22,1.85,2.2,3.4"/>
        <g>
          <path class="cls-2" d="M359.94,25.65c-.03,3.02-.06,6.03-.09,9.05"/>
          <path class="cls-2" d="M358.54,37.38c-3.41,3.04-4.55,7.78-4.82,11.96"/>
          <path class="cls-2" d="M359.94,25.65c-.03,3.02-.06,6.03-.09,9.05"/>
          <path class="cls-2" d="M358.54,37.38c-3.41,3.04-4.55,7.78-4.82,11.96"/>
          <path class="cls-2" d="M359.85,34.7c-.01,1.04-.55,2.01-1.3,2.68"/>
          <g>
            <path class="cls-2" d="M1.27,59.7c0-.81,.22-1.47,.67-2.13"/>
            <g>
              <path class="cls-2" d="M1.94,57.57c-.42-.61-.69-1.31-.69-2.12"/>
              <g>
                <path class="cls-2" d="M2.33,245.4c-.35-61.88-.7-123.77-1.06-185.65"/>
                <path class="cls-2" d="M1.25,55.44c-.05-8.39-.1-16.77-.14-25.16"/>
                <path class="cls-2" d="M3.45,26.73c6.01-3.7,14.21-5.38,20.9-6.47,7.53-1.22,15.09-2.03,22.67-2.84,14.86-1.59,29.72-3.16,44.59-4.68,29.74-3.05,59.49-5.95,89.26-8.67,6.86-.63,13.72-1.28,20.59-1.82,8.04-.62,16.08-1.04,24.14-1.14,8.44-.1,16.84,.15,25.25,.87,6.5,.55,12.97,1.4,19.43,2.25,14.82,1.96,29.58,4.2,44.32,6.67,3.52,.59,7.03,1.19,10.54,1.81,3.67,.64,7.33,1.29,10.98,2.04,6.93,1.43,15.44,3.51,21.62,7.48"/>
                <path class="cls-2" d="M1.11,30.28c0-1.63,1.09-2.77,2.34-3.54"/>
                <path class="cls-2" d="M2.33,245.4c-.35-61.88-.7-123.77-1.06-185.65"/>
                <path class="cls-2" d="M1.25,55.44c-.05-8.39-.1-16.77-.14-25.16"/>
                <path class="cls-2" d="M3.45,26.73c6.01-3.7,14.21-5.38,20.9-6.47,7.53-1.22,15.09-2.03,22.67-2.84,14.86-1.59,29.72-3.16,44.59-4.68,29.74-3.05,59.49-5.95,89.26-8.67,6.86-.63,13.72-1.28,20.59-1.82,8.04-.62,16.08-1.04,24.14-1.14,8.44-.1,16.84,.15,25.25,.87,6.5,.55,12.97,1.4,19.43,2.25,14.82,1.96,29.58,4.2,44.32,6.67,3.52,.59,7.03,1.19,10.54,1.81,3.67,.64,7.33,1.29,10.98,2.04,6.93,1.43,15.44,3.51,21.62,7.48"/>
              </g>
            </g>
          </g>
        </g>
      </g>
      <path class="cls-2" d="M352.98,51.27c.43,.64,.66,1.25,.65,2.03"/>
    </g>
    <line class="cls-2" x1="321.77" y1="252.46" x2="175.44" y2="289.56"/>
    <path class="cls-2" d="M175.44,289.56c-9.43,2.39-17.04,4.23-26.69,5.6-9.05,1.29-18.06,1.86-27.21,1.69-9-.17-18.26-1.1-27.08-3.03-4.46-.97-8.81-2.21-13.11-3.75-4.29-1.54-8.43-3.4-12.56-5.31"/>
  </g>
</svg>