<svg width="231" height="176" viewBox="0 0 231 176" fill="none" xmlns="http://www.w3.org/2000/svg">
<line x1="215.949" y1="48.3873" x2="65.6811" y2="48.3873" stroke="#1C5141" stroke-width="8.03673"/>
<line x1="44.1914" y1="48.387" x2="14.4809" y2="48.387" stroke="#1C5141" stroke-width="8.03673"/>
<rect opacity="0.45" y="161.897" width="230.403" height="13.6585" rx="6.82923" fill="#D9D9D9"/>
<rect x="13.868" y="15.629" width="202.666" height="148.872" rx="13.841" stroke="#1C5141" stroke-width="8.03673"/>
<line x1="116.988" y1="61.0804" x2="116.988" y2="69.323" stroke="#32B5C7" stroke-width="3.57188" stroke-linecap="round"/>
<path d="M54.8076 146.844L54.8076 21.4304" stroke="#F4D279" stroke-width="8.03673" stroke-linecap="round"/>
<circle cx="54.8079" cy="14.6851" r="13.8861" fill="#F4D279"/>
<line x1="53.9072" y1="40.0095" x2="59.2069" y2="40.0095" stroke="#F7F6F1" stroke-width="3.57188"/>
<line x1="53.9072" y1="51.3996" x2="59.2069" y2="51.3996" stroke="#F7F6F1" stroke-width="3.57188"/>
<line x1="53.9072" y1="62.7893" x2="59.2069" y2="62.7893" stroke="#F7F6F1" stroke-width="3.57188"/>
<line x1="53.9072" y1="74.1791" x2="59.2069" y2="74.1791" stroke="#F7F6F1" stroke-width="3.57188"/>
<line x1="53.9072" y1="85.569" x2="59.2069" y2="85.569" stroke="#F7F6F1" stroke-width="3.57188"/>
<line x1="53.9072" y1="96.9587" x2="59.2069" y2="96.9587" stroke="#F7F6F1" stroke-width="3.57188"/>
<line x1="53.9072" y1="108.349" x2="59.2069" y2="108.349" stroke="#F7F6F1" stroke-width="3.57188"/>
<line x1="53.9072" y1="119.738" x2="59.2069" y2="119.738" stroke="#F7F6F1" stroke-width="3.57188"/>
<line x1="53.9072" y1="131.128" x2="59.2069" y2="131.128" stroke="#F7F6F1" stroke-width="3.57188"/>
</svg>
