<?xml version="1.0" encoding="UTF-8"?>
<svg id="Make2D::Visible::Tangents" xmlns="http://www.w3.org/2000/svg" viewBox="0 0 141.36 343.47">
  <defs>
    <style>
      .cls-1 {
        stroke-width: .44px;
      }

      .cls-1, .cls-2 {
        fill: none;
        stroke: #000;
        stroke-linecap: round;
        stroke-linejoin: round;
      }

      .cls-2 {
        stroke-width: 2.22px;
      }
    </style>
  </defs>
  <g>
    <path class="cls-1" d="M4.48,76.55c-.28,.02-.5-.22-.62-.42"/>
    <line class="cls-1" x1="7.15" y1="76.31" x2="4.48" y2="76.55"/>
    <path class="cls-1" d="M4.19,66.62c.33-.03,.56,.3,.68,.54,.14,.29,.19,.57,.19,.89"/>
    <line class="cls-1" x1="4.19" y1="66.62" x2="6.87" y2="66.4"/>
    <path class="cls-1" d="M5.2,124.6c.7-.08,1.21,.63,1.46,1.13,.3,.62,.42,1.22,.43,1.9"/>
    <line class="cls-1" x1="5.2" y1="124.6" x2="7.6" y2="124.33"/>
    <path class="cls-1" d="M5.99,149.31c-.7,.09-1.23-.62-1.48-1.13-.3-.62-.43-1.23-.43-1.91"/>
    <line class="cls-1" x1="8.38" y1="149.01" x2="5.99" y2="149.31"/>
    <path class="cls-1" d="M5.01,93.25c.69-.07,1.19,.62,1.44,1.13,.29,.61,.41,1.21,.42,1.88"/>
    <line class="cls-1" x1="5.01" y1="93.25" x2="7.43" y2="93.02"/>
    <path class="cls-1" d="M5.72,118.16c-.69,.08-1.21-.62-1.45-1.13-.3-.61-.42-1.22-.42-1.89"/>
    <line class="cls-1" x1="8.13" y1="117.9" x2="5.72" y2="118.16"/>
    <path class="cls-1" d="M6.4,78.19c.87-.08,1.43-.89,1.72-1.58,.33-.79,.43-1.56,.43-2.4"/>
    <path class="cls-1" d="M7.02,150.27c.7-.09,1.15-.74,1.39-1.31,.26-.64,.35-1.27,.34-1.96"/>
    <path class="cls-1" d="M6.73,119.15c.73-.08,1.2-.75,1.44-1.34,.27-.66,.36-1.31,.36-2.02"/>
    <line class="cls-1" x1="5.12" y1="75.35" x2="5.07" y2="68.05"/>
    <path class="cls-1" d="M5.12,75.35c0,.25-.03,.48-.13,.72-.09,.21-.25,.45-.52,.47"/>
    <path class="cls-1" d="M3.18,69.23c0-.76,.15-1.69,.61-2.35"/>
    <path class="cls-1" d="M3.94,126.98c0-.5,.06-.96,.25-1.43,.17-.41,.5-.89,1.02-.95"/>
    <path class="cls-1" d="M7.23,146.97c0,.49-.06,.94-.24,1.4-.17,.41-.49,.87-.99,.94"/>
    <path class="cls-1" d="M3.7,95.69c0-.51,.06-.99,.26-1.47,.18-.43,.52-.92,1.05-.97"/>
    <path class="cls-1" d="M7,115.77c0,.5-.06,.97-.25,1.44-.17,.42-.51,.9-1.03,.96"/>
    <path class="cls-1" d="M8.52,69.83c0-1.06-.19-2.01-.65-2.98-.38-.8-1.18-1.89-2.27-1.8"/>
    <path class="cls-1" d="M8.61,127.67c0-.95-.18-1.8-.6-2.66-.35-.71-1.07-1.69-2.04-1.58"/>
    <path class="cls-1" d="M8.39,96.28c0-.94-.17-1.78-.58-2.63-.34-.71-1.05-1.67-2.01-1.58"/>
    <line class="cls-1" x1="8.74" y1="147.01" x2="8.61" y2="127.67"/>
    <line class="cls-1" x1="8.52" y1="115.8" x2="8.39" y2="96.28"/>
    <path class="cls-1" d="M6.52,65.27c-.43,.34-.67,.74-.87,1.23"/>
    <path class="cls-1" d="M6.89,123.65c-.24,.24-.41,.51-.54,.82"/>
    <path class="cls-1" d="M6.72,92.32c-.25,.24-.42,.51-.57,.82"/>
    <path class="cls-1" d="M5.99,76.41c.28,.54,.71,1.11,1.27,1.41"/>
    <path class="cls-1" d="M4.15,76.45c.39,.79,1.18,1.83,2.25,1.74"/>
    <path class="cls-1" d="M7.14,149.16c.2,.27,.43,.49,.72,.67"/>
    <path class="cls-1" d="M5.1,148.98c.36,.62,1.05,1.4,1.91,1.29"/>
    <path class="cls-1" d="M6.86,118.04c.2,.27,.42,.5,.72,.68"/>
    <path class="cls-1" d="M4.82,117.81c.36,.64,1.04,1.44,1.91,1.34"/>
    <path class="cls-1" d="M6.87,66.4c.33-.03,.56,.3,.68,.54,.14,.29,.19,.57,.19,.89"/>
    <path class="cls-1" d="M5.6,65.06c-.99,.08-1.58,1.09-1.85,1.87"/>
    <path class="cls-1" d="M5.97,123.42c-.87,.1-1.35,1.02-1.56,1.72"/>
    <path class="cls-1" d="M5.79,92.07c-.88,.08-1.38,1.01-1.6,1.71"/>
    <path class="cls-1" d="M37.77,341.81c-4.06,.93-8.25,.73-12.15-.85"/>
    <line class="cls-1" x1="114.1" y1="324.23" x2="37.85" y2="341.79"/>
    <path class="cls-1" d="M7.8,75.12c0,.25-.03,.48-.13,.72-.09,.21-.26,.45-.52,.47"/>
    <path class="cls-1" d="M3.86,76.13c-.44-.74-.65-1.69-.65-2.54"/>
    <line class="cls-1" x1="3.18" y1="69.23" x2="3.21" y2="73.59"/>
    <path class="cls-1" d="M3.79,66.88c.11-.15,.21-.25,.4-.26"/>
    <line class="cls-1" x1="3.94" y1="126.98" x2="4.08" y2="146.26"/>
    <line class="cls-1" x1="7.23" y1="146.97" x2="7.09" y2="127.64"/>
    <line class="cls-1" x1="3.7" y1="95.69" x2="3.84" y2="115.14"/>
    <line class="cls-1" x1="7" y1="115.77" x2="6.86" y2="96.26"/>
    <line class="cls-1" x1="7.75" y1="67.83" x2="7.8" y2="75.12"/>
    <line class="cls-1" x1="8.55" y1="74.21" x2="8.52" y2="69.83"/>
    <line class="cls-1" x1="10.05" y1="40.66" x2="11.89" y2="314.05"/>
    <path class="cls-1" d="M117.2,2.97c6.68-.35,12.43,3.06,16.35,8.14,3.88,5.04,5.84,11.46,6.26,17.67"/>
    <line class="cls-1" x1="114.12" y1="1.98" x2="36.54" y2="5.94"/>
    <line class="cls-1" x1="37.2" y1="7.1" x2="114.78" y2="3.09"/>
    <path class="cls-1" d="M11.71,37.34c-.09,1.11-.13,2.22-.12,3.33"/>
    <path class="cls-1" d="M139.89,31.87c.01-1.03-.02-2.06-.09-3.09"/>
    <path class="cls-1" d="M114.51,323.48c7.01-1.61,12.72-6.93,16.37-12.68,3.76-5.92,5.92-13.07,6-20.09"/>
    <line class="cls-1" x1="11.89" y1="314.05" x2="11.91" y2="317.12"/>
    <path class="cls-1" d="M10.05,40.66c0-1.11,.03-2.22,.11-3.33"/>
    <line class="cls-1" x1="116.54" y1="1.86" x2="114.12" y2="1.98"/>
    <path class="cls-1" d="M134.24,291.28c-.07,6.18-1.97,12.48-5.28,17.68-3.22,5.06-8.24,9.74-14.42,11.15"/>
    <line class="cls-1" x1="137.15" y1="32.06" x2="134.24" y2="291.28"/>
    <line class="cls-1" x1="37.21" y1="10.95" x2="117.17" y2="6.66"/>
    <path class="cls-1" d="M14.73,40.46c-.04-6.72,1.88-13.63,5.73-19.22,3.8-5.51,9.7-9.91,16.75-10.28"/>
    <line class="cls-1" x1="16.4" y1="316.53" x2="14.73" y2="40.46"/>
    <path class="cls-1" d="M38.15,337.53c-5.96,1.36-11.81-.31-16-4.84-4.05-4.37-5.71-10.44-5.75-16.16"/>
    <line class="cls-1" x1="114.54" y1="320.11" x2="38.15" y2="337.53"/>
    <line class="cls-1" x1="136.88" y1="290.71" x2="136.92" y2="287.83"/>
    <line class="cls-1" x1="38.16" y1="341.03" x2="114.51" y2="323.48"/>
    <line class="cls-1" x1="13.37" y1="314.11" x2="13.39" y2="317.18"/>
    <line class="cls-1" x1="139.89" y1="31.87" x2="136.92" y2="287.83"/>
    <line class="cls-1" x1="13.37" y1="314.11" x2="11.59" y2="40.68"/>
    <path class="cls-1" d="M11.71,37.34c.55-7.08,3.01-14.21,7.39-19.9,4.33-5.64,10.68-9.96,18.1-10.34"/>
    <path class="cls-1" d="M10.16,37.33c.55-7.35,3.09-14.74,7.61-20.66,4.48-5.85,11.06-10.34,18.77-10.73"/>
    <path class="cls-1" d="M116.54,1.86c.8-.04,1.59-.03,2.38,.03"/>
    <path class="cls-1" d="M25.61,340.95c-4.62-1.88-8.13-5.45-10.4-9.78-2.27-4.32-3.27-9.24-3.3-14.06"/>
    <path class="cls-1" d="M13.39,317.18c.04,6.51,1.94,13.41,6.55,18.38,4.78,5.15,11.43,7.03,18.21,5.47"/>
    <path class="cls-1" d="M117.17,6.66c6.4-.34,11.76,3.21,15.19,8.24,3.4,5,4.86,11.24,4.79,17.16"/>
    <line class="cls-1" x1="117.2" y1="2.97" x2="114.78" y2="3.09"/>
  </g>
  <g>
    <path class="cls-2" d="M37.77,341.81c-4.06,.93-8.25,.73-12.15-.85"/>
    <g>
      <line class="cls-2" x1="114.1" y1="324.23" x2="37.85" y2="341.79"/>
      <line class="cls-2" x1="3.3" y1="313.68" x2="3.27" y2="310.64"/>
      <line class="cls-2" x1="25.61" y1="340.95" x2="17.18" y2="337.53"/>
      <g>
        <path class="cls-2" d="M1.11,39.51c0-1.1,.03-2.2,.11-3.3"/>
        <path class="cls-2" d="M17.18,337.53c-4.63-1.88-8.18-5.44-10.5-9.76-2.31-4.32-3.34-9.25-3.38-14.09"/>
        <path class="cls-2" d="M1.11,39.51c0-1.1,.03-2.2,.11-3.3"/>
        <g>
          <path class="cls-2" d="M140.17,28.71c.07,1.03,.09,2.06,.08,3.09"/>
          <line class="cls-2" x1="140.25" y1="31.81" x2="137.26" y2="287.64"/>
          <line class="cls-2" x1="137.26" y1="287.64" x2="137.23" y2="290.52"/>
          <path class="cls-2" d="M137.23,290.52c-.08,7.24-2.32,14.6-6.21,20.69-3.8,5.94-9.69,11.36-16.92,13.02"/>
          <line class="cls-2" x1="3.27" y1="310.64" x2="1.11" y2="39.52"/>
          <path class="cls-2" d="M1.22,36.21c.54-7.31,3.1-14.66,7.64-20.51,4.51-5.8,11.1-10.17,18.75-10.55"/>
          <path class="cls-2" d="M118.92,1.89c6.46,.51,11.8,4.28,15.41,9.37,3.6,5.08,5.44,11.34,5.84,17.45"/>
          <line class="cls-2" x1="27.67" y1="5.15" x2="104.99" y2="1.25"/>
          <path class="cls-2" d="M109.78,1.17c-.79-.06-1.58-.07-2.38-.03"/>
          <path class="cls-2" d="M1.22,36.21c.54-7.31,3.1-14.66,7.64-20.51,4.51-5.8,11.1-10.17,18.75-10.55"/>
          <path class="cls-2" d="M118.92,1.89c6.46,.51,11.8,4.28,15.41,9.37,3.6,5.08,5.44,11.34,5.84,17.45"/>
          <line class="cls-2" x1="109.78" y1="1.17" x2="118.92" y2="1.89"/>
          <line class="cls-2" x1="140.25" y1="31.81" x2="137.26" y2="287.64"/>
          <path class="cls-2" d="M137.23,290.52c-.08,7.24-2.32,14.6-6.21,20.69-3.8,5.94-9.69,11.36-16.92,13.02"/>
          <line class="cls-2" x1="137.26" y1="287.64" x2="137.23" y2="290.52"/>
          <path class="cls-2" d="M140.17,28.71c.07,1.03,.09,2.06,.08,3.09"/>
          <line class="cls-2" x1="104.99" y1="1.25" x2="107.4" y2="1.13"/>
          <line class="cls-2" x1="3.27" y1="310.64" x2="1.11" y2="39.52"/>
        </g>
      </g>
    </g>
  </g>
</svg>