<svg width="1440" height="2532" viewBox="0 0 1440 2532" fill="none" xmlns="http://www.w3.org/2000/svg">
<path d="M3160.01 -23.6117V141.119C2437.75 141.9 1795.46 504.881 1381.48 1069L1380.52 1070.31L1381.42 1071.67C1448.47 1173.22 1508.99 1280.29 1561.94 1391.77L1563.74 1395.57L1566.02 1392.03C1914.55 848.974 2498.3 492.43 3160.01 491.593V656.691C2516.47 657.576 1953.33 1023.94 1640.84 1571.54L1640.29 1572.5L1640.69 1573.54C1698.11 1722.19 1743.5 1877.83 1774.45 2038.99L1776.14 2047.82L1778.96 2039.28C1980.12 1429.92 2522.34 993.498 3160.01 992.435V1157.53C2436.26 1158.88 1849.93 1786.56 1848.75 2560.62H1669.98C1669.73 2284.28 1625.66 2019.32 1545.97 1772.32C1522.89 1700.44 1496.71 1630.03 1467.42 1561.46C1415.75 1439.83 1355.47 1323.72 1286.57 1213.87L1284.59 1215.11L1286.57 1213.87C1255.56 1164.46 1222.14 1116.17 1187.7 1069.36C773.717 505.249 131.429 142.268 -590.834 141.487V-23.6117C165.272 -22.846 839.958 349.644 1282.73 932.219L1284.59 934.666L1286.45 932.219C1729.22 349.644 2403.91 -22.846 3160.01 -23.6117Z" stroke="white" stroke-width="4.6717"/>
<path d="M1281.97 2051.61L1281.97 2051.61C1320.99 2214.59 1341.61 2385.23 1341.79 2560.99H1187.8C1187.49 2279.44 1129.98 2012.58 1027.24 1772.48C997.951 1703.16 964.871 1636.06 928.345 1571.9L926.315 1573.06L928.344 1571.9C616.194 1023.93 52.7056 657.939 -590.834 657.055V491.956C70.8778 492.793 654.631 849.337 1003.16 1392.4C1038.37 1447.26 1071.19 1503.93 1101.3 1562.43L1100.96 1563.16L1101.48 1564.18C1179.87 1716.11 1241.06 1879.44 1281.97 2051.61Z" stroke="white" stroke-width="4.6717"/>
<path d="M-590.834 1157.54V992.44C46.8329 993.504 589.062 1430.29 790.561 2039.66C844.29 2202.61 874.165 2377.96 874.418 2560.63H720.429C719.252 1786.57 132.922 1158.89 -590.834 1157.54Z" stroke="white" stroke-width="4.6717"/>
</svg>
