<svg width="2001" height="496" viewBox="0 0 2001 496" fill="none" xmlns="http://www.w3.org/2000/svg">
<path d="M123.481 423.863L65.1671 241.013L0.922344 241.013L92.3475 489.591L153.133 489.591L244.064 241.013L185.255 241.013L124.47 423.863L123.481 423.863Z" fill="#F7F6F1"/>
<path d="M361.45 449.067C325.374 449.067 303.629 421.887 302.147 375.927L459.299 375.927C461.77 369.008 464.241 355.665 464.241 342.816C464.241 282.525 429.154 235.083 361.45 235.083C289.298 235.083 243.832 285.984 243.832 367.032C243.832 449.067 289.298 495.521 360.955 495.521C406.915 495.521 448.427 475.259 461.77 426.829L411.363 410.52C404.444 437.701 386.653 449.067 361.45 449.067ZM303.135 342.322C307.089 302.787 327.845 279.066 360.461 279.066C390.607 279.066 406.421 302.293 406.421 329.967C406.421 333.427 406.421 338.369 405.927 342.322L303.135 342.322Z" fill="#F7F6F1"/>
<path d="M646.767 237.06C599.819 228.164 564.732 257.816 554.354 301.304L547.435 241.013L496.039 241.013L496.039 489.591L556.824 489.591L556.825 369.503C556.825 321.072 583.511 295.868 618.104 295.868C627 295.868 637.378 297.351 643.308 299.328L646.767 237.06Z" fill="#F7F6F1"/>
<path d="M857.072 315.142C857.072 262.758 824.95 235.083 763.176 235.083C707.827 235.083 668.786 262.758 663.844 310.694L721.17 319.589C721.664 295.374 734.513 280.548 760.211 280.548C785.909 280.548 798.758 294.88 798.758 318.601L798.758 346.276C789.862 345.287 778.99 344.793 771.577 344.793C693.989 344.793 652.477 374.445 652.477 423.864C652.477 468.835 685.094 494.533 730.559 494.533C762.682 494.533 792.333 480.201 802.217 454.009C804.194 460.928 806.665 466.858 809.63 472.294C819.019 486.626 834.833 494.533 855.589 494.533C868.438 494.533 882.276 491.073 891.171 485.143L888.7 443.631C885.241 446.596 879.805 448.573 874.369 448.573C863.991 448.573 857.072 443.631 857.072 429.3L857.072 315.142ZM798.758 398.66C798.758 437.701 774.048 453.021 749.339 453.021C725.617 453.021 711.78 439.678 711.78 419.91C711.78 392.73 735.007 379.881 778.496 379.881C785.909 379.881 793.322 380.869 798.758 381.363L798.758 398.66Z" fill="#F7F6F1"/>
<path d="M967.307 241.013L917.394 241.013L917.394 489.591L978.18 489.591L978.18 350.229C978.18 304.27 1002.39 286.479 1031.55 286.479C1059.72 286.479 1072.08 304.764 1072.08 332.438L1072.08 489.591L1133.36 489.591L1133.36 315.636C1133.36 263.746 1101.23 235.083 1055.77 235.083C1017.71 235.083 987.569 254.356 974.72 288.95L967.307 241.013Z" fill="#F7F6F1"/>
<path d="M1338 379.387C1338 427.323 1310.33 447.585 1282.65 447.585C1247.07 447.585 1224.83 419.91 1224.83 368.02C1224.83 308.223 1249.05 281.043 1283.64 281.043C1308.84 281.043 1338 298.834 1338 341.828L1338 379.387ZM1347.39 489.591L1398.79 489.591L1398.79 132.786L1338 132.786L1338 273.63C1329.1 252.874 1304.89 235.083 1267.33 235.083C1204.07 235.083 1162.56 284.008 1162.56 369.997C1162.56 452.032 1208.03 495.521 1263.38 495.521C1298.46 495.521 1329.6 479.213 1340.97 443.137L1347.39 489.591Z" fill="#F7F6F1"/>
<path d="M1628.47 315.142C1628.47 262.758 1596.35 235.083 1534.58 235.083C1479.23 235.083 1440.19 262.758 1435.24 310.694L1492.57 319.59C1493.06 295.374 1505.91 280.549 1531.61 280.549C1557.31 280.549 1570.16 294.88 1570.16 318.601L1570.16 346.276C1561.26 345.287 1550.39 344.793 1542.98 344.793C1465.39 344.793 1423.88 374.445 1423.88 423.864C1423.88 468.835 1456.49 494.533 1501.96 494.533C1534.08 494.533 1563.73 480.201 1573.62 454.009C1575.59 460.928 1578.06 466.858 1581.03 472.294C1590.42 486.626 1606.23 494.533 1626.99 494.533C1639.84 494.533 1653.68 491.074 1662.57 485.143L1660.1 443.631C1656.64 446.596 1651.2 448.573 1645.77 448.573C1635.39 448.573 1628.47 443.631 1628.47 429.3L1628.47 315.142ZM1570.16 398.66C1570.16 437.701 1545.45 453.021 1520.74 453.021C1497.02 453.021 1483.18 439.678 1483.18 419.91C1483.18 392.73 1506.41 379.881 1549.9 379.881C1557.31 379.881 1564.72 380.869 1570.16 381.363L1570.16 398.66Z" fill="#F7F6F1"/>
<path d="M1574.19 0H1569.74V26.7279H1574.19C1653.99 26.7279 1724.98 64.1721 1770.73 122.436L1770.74 122.44C1774.55 127.287 1778.24 132.265 1781.64 137.339C1789.24 148.664 1795.9 160.64 1801.61 173.194L1801.61 173.202C1804.84 180.265 1807.72 187.522 1810.27 194.936L1810.27 194.942C1819.1 220.495 1823.96 247.908 1823.96 276.502V280.946H1853.48V276.502C1853.48 197.532 1917.51 133.5 1996.48 133.5H2000.92V106.772H1996.48C1927.64 106.772 1868.41 147.759 1841.8 206.672C1838.78 195.08 1835.01 183.79 1830.59 172.852C1865.18 117.626 1926.53 80.8687 1996.48 80.8687H2000.92V54.1409H1996.48C1922.96 54.1409 1857.8 89.8619 1817.33 144.852C1812.65 136.227 1807.52 127.871 1801.98 119.827C1847.79 63.0348 1917.85 26.6892 1996.48 26.6892H2000.92V0H1996.48C1911.81 0 1836.05 38.0847 1785.33 98.0256C1734.62 38.0847 1658.86 0 1574.19 0Z" fill="#33D16B"/>
<path d="M1574.19 54.172H1569.74V80.8999H1574.19C1644.94 80.8999 1706.92 118.466 1741.25 174.782C1745.26 181.358 1748.89 188.241 1752.1 195.353L1752.11 195.373C1763.42 220.076 1769.74 247.542 1769.74 276.534V280.977H1796.47V276.534C1796.47 257.588 1794.1 239.185 1789.6 221.605C1785.1 203.894 1778.45 187.056 1769.99 171.336L1770.03 171.25L1768.91 169.206C1765.43 162.881 1761.64 156.757 1757.57 150.837C1717.5 92.4854 1650.33 54.172 1574.19 54.172Z" fill="#33D16B"/>
<path d="M1574.19 106.767H1569.74V133.495H1574.19C1653.16 133.495 1717.19 197.527 1717.19 276.497V280.94H1743.92V276.497C1743.92 256.666 1740.46 237.629 1734.22 219.949L1734.22 219.945C1710.9 154.026 1648.08 106.767 1574.19 106.767Z" fill="#33D16B"/>
</svg>
