<?xml version="1.0" standalone="no"?>
<!DOCTYPE svg PUBLIC "-//W3C//DTD SVG 20010904//EN"
 "http://www.w3.org/TR/2001/REC-SVG-20010904/DTD/svg10.dtd">
<svg version="1.0" xmlns="http://www.w3.org/2000/svg"
 width="2001.000000pt" height="2001.000000pt" viewBox="0 0 2001.000000 2001.000000"
 preserveAspectRatio="xMidYMid meet">
<metadata>
Created by potrace 1.14, written by Peter Selinger 2001-2017
</metadata>
<g transform="translate(0.000000,2001.000000) scale(0.100000,-0.100000)"
fill="#000000" stroke="none">
<path d="M9 16529 c-1 -2 -2 -282 -3 -622 l-1 -617 165 0 c189 0 556 -8 645
-15 33 -2 103 -7 155 -10 172 -10 425 -33 565 -50 17 -2 57 -6 90 -10 33 -3
67 -8 75 -10 8 -2 44 -7 80 -10 36 -3 72 -8 81 -11 9 -2 35 -6 57 -9 53 -5
321 -51 452 -76 58 -11 116 -23 130 -25 133 -24 542 -120 740 -174 581 -157
1201 -379 1745 -626 99 -44 618 -302 710 -352 61 -33 137 -75 170 -93 140 -75
687 -410 731 -447 5 -5 20 -14 32 -21 32 -17 350 -242 502 -355 129 -96 458
-355 490 -386 9 -8 38 -33 65 -55 332 -271 841 -768 1175 -1145 51 -58 107
-121 124 -140 29 -33 111 -129 147 -175 10 -11 34 -41 55 -66 49 -59 58 -70
119 -149 28 -35 58 -73 67 -85 9 -11 50 -65 92 -120 41 -55 79 -105 84 -110
24 -28 189 -261 287 -405 120 -178 364 -573 465 -755 353 -638 616 -1215 825
-1810 88 -250 208 -624 229 -715 2 -8 16 -57 30 -107 48 -168 152 -602 170
-703 2 -14 16 -81 30 -150 14 -69 27 -138 30 -155 3 -16 16 -97 30 -180 14
-82 28 -170 31 -195 3 -25 8 -56 10 -70 13 -94 19 -139 30 -240 3 -30 8 -62
10 -70 2 -8 7 -51 10 -95 4 -44 8 -93 10 -110 12 -107 20 -208 30 -385 3 -47
7 -119 10 -160 3 -41 8 -228 10 -415 l5 -340 684 -3 683 -2 2 212 c1 117 4
258 6 313 5 95 7 127 21 290 7 78 50 426 59 465 2 13 7 42 11 65 3 22 14 85
25 140 23 112 21 105 43 196 8 37 17 78 20 90 13 61 59 229 105 381 192 632
503 1274 885 1823 66 95 234 324 246 335 3 3 21 25 40 50 19 24 42 52 50 60 8
9 33 38 55 66 128 158 429 468 620 641 220 198 472 396 705 555 124 84 301
198 330 211 8 4 29 16 45 27 17 11 46 28 65 39 19 11 51 29 70 40 70 41 448
228 551 274 233 103 532 214 759 282 244 74 655 169 820 190 25 3 52 8 60 10
8 2 35 7 60 10 25 3 56 8 70 10 14 2 45 7 70 9 25 3 68 8 95 11 97 12 121 14
200 20 44 3 109 8 145 11 59 4 399 13 546 14 l60 0 0 620 0 619 -300 -4 c-166
-3 -328 -7 -361 -9 -33 -3 -96 -8 -140 -11 -117 -9 -173 -14 -214 -20 -20 -2
-63 -7 -96 -10 -86 -7 -275 -34 -460 -66 -52 -9 -282 -54 -325 -64 -8 -2 -55
-13 -105 -24 -49 -12 -108 -26 -130 -31 -22 -6 -50 -13 -63 -16 -181 -39 -734
-223 -977 -324 -812 -341 -1464 -736 -2105 -1275 -92 -77 -114 -96 -245 -215
-77 -70 -434 -427 -505 -505 -73 -81 -267 -309 -310 -365 -19 -25 -40 -51 -47
-58 -54 -56 -385 -524 -480 -678 -22 -36 -98 -159 -108 -176 -114 -190 -330
-601 -383 -728 -12 -29 -24 -51 -26 -49 -2 2 -22 73 -45 158 -106 388 -262
858 -415 1249 -31 79 -56 149 -56 156 0 7 6 21 14 31 8 11 71 104 139 206 261
392 548 755 882 1119 140 152 493 498 635 620 41 36 84 74 96 85 12 11 33 29
46 41 13 11 104 86 203 165 935 751 1992 1302 3140 1638 101 30 249 71 271 76
10 2 117 26 236 54 119 28 254 57 300 66 46 8 94 17 108 20 14 3 43 7 65 10
22 3 47 7 55 10 8 2 35 7 60 10 25 3 52 8 60 10 8 2 40 7 70 10 30 3 66 8 80
10 86 12 157 21 240 30 36 3 76 8 90 10 14 2 66 7 115 10 50 4 106 8 125 10
41 4 291 17 405 21 44 1 166 3 271 3 l190 1 0 621 0 622 -335 -7 c-185 -4
-365 -8 -401 -10 -137 -8 -276 -17 -310 -21 -19 -2 -69 -6 -111 -9 -42 -4 -85
-8 -95 -10 -11 -2 -55 -7 -98 -11 -43 -4 -86 -8 -95 -10 -9 -1 -43 -6 -76 -9
-33 -4 -71 -9 -85 -11 -14 -2 -45 -7 -70 -10 -25 -3 -56 -8 -70 -10 -36 -7
-79 -13 -125 -20 -22 -3 -62 -10 -90 -15 -27 -5 -66 -12 -85 -15 -214 -35
-706 -149 -971 -225 -389 -111 -918 -296 -1137 -396 -29 -13 -56 -24 -61 -24
-4 0 -35 -13 -69 -30 -34 -16 -64 -30 -67 -30 -27 0 -609 -288 -829 -410 -380
-210 -876 -528 -1121 -717 -5 -5 -44 -33 -85 -63 -41 -30 -77 -57 -80 -60 -3
-3 -57 -45 -120 -95 -114 -88 -257 -205 -335 -274 -23 -20 -74 -65 -115 -101
-195 -171 -486 -453 -665 -645 -136 -145 -166 -177 -231 -250 -127 -143 -341
-404 -460 -561 -64 -85 -120 -154 -123 -154 -4 0 -15 17 -26 38 -120 228 -405
697 -593 975 -83 123 -92 141 -79 155 7 10 58 71 112 137 54 66 103 125 109
130 6 6 24 26 40 45 15 19 63 73 105 120 43 47 106 117 142 156 133 149 605
611 787 773 98 87 110 97 166 145 27 22 83 70 125 106 42 36 97 81 121 100 24
19 60 49 80 65 260 212 788 585 1112 786 84 52 273 165 288 172 8 4 31 17 50
28 167 102 697 378 905 472 116 52 259 116 310 137 11 5 40 18 65 29 96 41
402 161 540 211 211 76 650 220 720 235 8 2 56 15 105 30 141 41 612 158 690
171 11 1 65 12 120 24 55 11 140 27 189 35 49 9 92 17 95 19 3 2 30 7 60 10
29 4 56 8 60 10 3 2 31 7 61 11 30 3 62 8 70 10 8 3 35 7 60 10 25 3 52 7 60
9 8 3 40 7 71 11 31 3 65 7 75 9 11 2 50 7 87 11 37 3 76 8 85 9 9 2 49 7 87
10 39 4 81 9 95 11 14 2 63 7 110 10 47 3 101 8 120 10 19 2 85 6 145 10 61 4
128 8 150 10 55 5 530 17 700 19 l140 1 1 619 0 619 -390 -7 c-215 -4 -413 -9
-441 -11 -27 -2 -102 -6 -165 -9 -112 -6 -199 -13 -290 -21 -25 -3 -80 -7
-123 -11 -43 -3 -87 -7 -96 -9 -10 -2 -54 -6 -97 -10 -43 -4 -87 -9 -98 -11
-10 -2 -44 -6 -75 -9 -31 -4 -67 -8 -81 -10 -14 -2 -61 -9 -105 -15 -44 -6
-91 -12 -105 -15 -14 -2 -43 -6 -65 -9 -22 -4 -51 -8 -65 -11 -14 -2 -43 -7
-65 -10 -40 -5 -138 -22 -185 -31 -14 -3 -38 -7 -55 -9 -16 -3 -64 -11 -105
-20 -41 -8 -86 -17 -100 -19 -54 -10 -129 -26 -215 -45 -49 -11 -101 -22 -115
-25 -345 -72 -905 -231 -1357 -387 -223 -76 -550 -199 -638 -239 -11 -5 -108
-46 -215 -91 -182 -76 -251 -108 -470 -212 -47 -22 -87 -41 -90 -41 -3 -1 -16
-8 -30 -16 -14 -8 -27 -15 -30 -15 -7 -1 -222 -111 -305 -155 -38 -21 -99 -53
-135 -72 -92 -50 -179 -98 -225 -125 -22 -13 -48 -26 -57 -30 -10 -3 -18 -9
-18 -14 0 -5 -4 -9 -10 -9 -5 0 -38 -17 -72 -38 -35 -21 -70 -41 -78 -45 -8
-4 -34 -20 -58 -35 -23 -15 -86 -54 -140 -86 -185 -112 -688 -452 -817 -553
-45 -35 -47 -37 -85 -63 -19 -13 -37 -27 -40 -30 -3 -3 -32 -25 -65 -49 -136
-101 -499 -396 -635 -517 -19 -17 -78 -69 -130 -115 -378 -333 -932 -897
-1197 -1220 -31 -38 -60 -69 -64 -69 -4 0 -59 60 -123 133 -63 72 -129 148
-148 167 -18 20 -71 78 -118 130 -93 103 -488 501 -615 620 -74 69 -138 128
-256 235 -54 49 -319 277 -380 325 -24 19 -62 51 -84 70 -23 19 -66 54 -96 77
-30 23 -88 69 -129 101 -235 183 -475 355 -765 548 -228 152 -471 304 -486
304 -5 0 -9 5 -9 10 0 6 -4 10 -9 10 -5 0 -46 23 -91 50 -45 28 -83 50 -85 50
-2 0 -41 22 -87 48 -179 104 -335 186 -598 318 -206 103 -417 204 -425 204 -2
0 -36 15 -77 34 -40 18 -118 52 -173 75 -55 23 -114 48 -130 56 -71 32 -361
145 -560 217 -110 40 -577 197 -605 203 -8 2 -87 24 -174 50 -88 26 -169 49
-179 51 -11 2 -34 8 -51 13 -31 10 -301 79 -334 86 -9 2 -57 13 -107 25 -191
46 -580 123 -780 155 -22 3 -62 10 -90 15 -27 5 -70 12 -95 15 -25 3 -57 8
-71 10 -14 3 -43 7 -65 10 -21 3 -59 8 -84 11 -25 3 -56 7 -70 9 -14 1 -43 5
-65 9 -22 3 -65 8 -95 11 -30 4 -66 8 -80 10 -14 2 -61 6 -105 10 -44 4 -93 9
-110 11 -16 2 -65 6 -110 9 -44 3 -100 7 -125 9 -52 5 -245 17 -340 22 -118 6
-820 17 -821 13z"/>
<path d="M8 14007 c-3 -10 -2 -1191 1 -1222 1 -6 92 -10 249 -11 225 -1 561
-11 601 -19 9 -1 61 -6 116 -9 55 -4 114 -9 130 -11 17 -3 55 -7 85 -10 30 -3
71 -7 90 -10 82 -10 118 -15 160 -20 25 -3 54 -7 66 -9 12 -2 45 -7 75 -11 30
-3 61 -8 69 -10 8 -2 35 -7 60 -10 71 -10 395 -74 508 -101 56 -13 113 -26
125 -28 187 -38 792 -222 1026 -312 384 -149 606 -246 906 -396 948 -475 1826
-1130 2545 -1897 124 -132 251 -277 375 -425 22 -27 45 -54 50 -60 32 -34 264
-338 351 -459 77 -108 304 -454 376 -572 466 -770 832 -1650 1044 -2510 23
-95 61 -257 70 -300 2 -11 8 -42 14 -70 6 -27 12 -61 15 -75 11 -54 54 -307
60 -345 3 -22 10 -65 15 -95 5 -30 12 -84 15 -120 4 -36 8 -67 10 -70 2 -3 6
-39 9 -80 4 -41 9 -86 11 -100 5 -30 13 -118 20 -215 3 -38 7 -99 9 -135 10
-125 18 -377 21 -580 1 -113 3 -207 4 -210 2 -7 1215 -5 1227 2 13 9 5 642
-11 819 -2 24 -7 89 -10 144 -4 55 -8 116 -10 135 -2 19 -7 71 -10 115 -4 44
-9 88 -10 97 -2 9 -6 48 -10 85 -3 37 -8 78 -10 90 -5 22 -14 83 -19 138 -4
33 -16 119 -22 150 -2 11 -7 40 -10 65 -3 25 -7 52 -10 61 -3 9 -7 34 -10 55
-5 40 -38 216 -55 294 -5 25 -21 97 -35 160 -14 63 -27 125 -30 138 -7 34 -50
206 -73 292 -11 41 -26 100 -34 130 -46 174 -185 601 -278 849 -133 354 -253
630 -429 981 -111 222 -201 396 -253 485 -59 103 -166 285 -192 325 -12 19
-39 62 -60 95 -507 800 -1120 1527 -1810 2150 -49 44 -96 87 -105 95 -9 8 -58
51 -110 95 -52 44 -97 82 -100 85 -3 3 -61 50 -130 105 -69 55 -127 102 -130
105 -9 9 -273 205 -365 272 -99 71 -483 328 -490 328 -2 0 -42 24 -87 53 -302
193 -867 490 -1258 659 -211 92 -626 258 -644 258 -3 0 -17 5 -33 12 -15 6
-30 12 -33 13 -3 0 -88 29 -190 62 -427 142 -853 253 -1275 334 -27 5 -61 11
-75 14 -14 3 -90 16 -170 29 -150 25 -235 38 -415 61 -35 5 -201 24 -260 30
-154 16 -258 24 -535 40 -41 3 -217 7 -392 10 -245 3 -317 2 -320 -8z"/>
<path d="M15 11572 c-6 -4 -10 -223 -10 -620 l0 -612 140 -1 c225 -1 552 -14
625 -24 14 -2 63 -6 110 -10 47 -3 92 -8 100 -10 8 -2 40 -7 70 -10 30 -3 66
-8 80 -10 14 -2 45 -7 70 -10 148 -19 624 -119 760 -159 8 -3 49 -14 90 -26
86 -24 293 -91 377 -121 126 -45 219 -80 238 -89 11 -5 81 -34 155 -65 496
-208 1054 -539 1490 -884 94 -75 345 -288 399 -339 176 -168 372 -368 471
-482 36 -41 67 -77 70 -80 3 -3 37 -43 75 -90 38 -47 72 -87 75 -90 13 -13
137 -180 226 -305 434 -610 762 -1292 966 -2010 36 -129 61 -225 74 -283 2
-12 13 -59 24 -105 10 -45 22 -97 25 -115 3 -18 12 -63 19 -100 8 -37 17 -92
21 -122 4 -30 8 -57 10 -60 2 -3 7 -35 10 -70 4 -36 8 -67 10 -70 1 -3 6 -34
10 -70 3 -36 8 -78 10 -95 3 -16 7 -59 10 -95 3 -36 8 -83 10 -106 9 -92 18
-341 19 -532 l1 -202 620 2 620 3 -1 215 c-1 198 -10 459 -19 555 -10 99 -17
184 -20 225 -2 25 -6 63 -9 85 -3 22 -8 65 -11 95 -3 30 -8 64 -10 75 -3 11
-7 42 -10 69 -3 27 -12 88 -20 135 -8 47 -17 100 -20 116 -5 32 -17 94 -20
110 -2 6 -5 26 -9 45 -3 19 -15 78 -27 130 -11 52 -22 103 -24 112 -35 170
-204 751 -244 843 -5 11 -28 72 -51 135 -23 63 -45 124 -50 135 -5 11 -25 61
-45 110 -20 50 -43 104 -50 120 -7 17 -30 68 -51 115 -126 289 -467 913 -554
1017 -5 7 -10 15 -10 18 0 7 -150 228 -212 313 -97 134 -160 218 -171 232 -7
8 -37 47 -67 85 -30 39 -68 86 -85 105 -16 20 -50 60 -75 90 -153 185 -363
406 -592 625 -472 451 -1054 878 -1628 1193 -100 55 -416 214 -500 252 -41 18
-102 46 -135 61 -116 53 -462 187 -630 243 -305 103 -746 221 -975 262 -14 2
-48 9 -76 15 -57 11 -55 11 -224 38 -134 21 -244 37 -325 45 -27 3 -68 8 -90
11 -49 6 -119 12 -390 31 -126 8 -630 13 -640 6z"/>
</g>
</svg>
