<svg width="597" height="534" viewBox="0 0 597 534" fill="none" xmlns="http://www.w3.org/2000/svg">
<path fill-rule="evenodd" clip-rule="evenodd" d="M185.396 71.7938C178.737 72.8092 172.738 67.6553 172.738 60.9195V11C172.738 4.92487 167.813 0 161.738 0H121.004C114.929 0 110.004 4.92486 110.004 11V73.8399C110.004 79.2747 106.035 83.8949 100.662 84.7142L-15.2512 102.389C-20.6239 103.208 -24.593 107.828 -24.593 113.263V153.025C-24.593 159.761 -18.5937 164.915 -11.9349 163.9L28.0095 157.809C34.6684 156.794 40.6677 161.947 40.6677 168.683V522.783C40.6677 528.858 45.5926 533.783 51.6677 533.783H523.83C529.905 533.783 534.83 528.858 534.83 522.783V89.9776C534.83 84.5428 538.799 79.9226 544.172 79.1033L586.795 72.6041C592.167 71.7849 596.136 67.1646 596.136 61.7298V21.9676C596.136 15.2318 590.137 10.078 583.478 11.0933L185.396 71.7938ZM258.5 150.812C258.5 141.982 250.675 135.203 241.936 136.46L186.5 144.433V250H185.5V144.577L125.936 153.145C118.798 154.171 113.5 160.286 113.5 167.497V253C113.5 261.008 119.992 267.5 128 267.5H244C252.008 267.5 258.5 261.008 258.5 253V150.812ZM241.793 135.47C251.136 134.126 259.5 141.373 259.5 150.812V253C259.5 261.56 252.56 268.5 244 268.5H128C119.44 268.5 112.5 261.56 112.5 253V167.497C112.5 159.789 118.164 153.252 125.793 152.155L241.793 135.47ZM400.491 70.9445C397.115 70.6306 393.73 70.4831 390.346 70.5015L390.345 70.2515L390.342 69.7515L390.34 69.5016C393.757 69.4829 397.175 69.6318 400.583 69.9487L400.56 70.1977L400.514 70.6955L400.491 70.9445ZM384.706 70.6862C381.328 70.8891 377.96 71.2577 374.612 71.7916L374.573 71.5447L374.494 71.051L374.455 70.8041C377.835 70.265 381.236 69.8928 384.646 69.688L384.661 69.9375L384.691 70.4366L384.706 70.6862ZM411.097 72.4882C409.434 72.1575 407.766 71.868 406.093 71.6199L406.13 71.3726L406.203 70.878L406.24 70.6307C407.929 70.8813 409.613 71.1735 411.292 71.5074C412.971 71.8414 414.639 72.2161 416.295 72.631L416.235 72.8735L416.113 73.3585L416.052 73.601C414.412 73.1901 412.76 72.819 411.097 72.4882ZM369.066 72.8321C367.413 73.1891 365.767 73.587 364.129 74.0258L364.065 73.7843L363.935 73.3013L363.871 73.0598C365.524 72.6168 367.186 72.215 368.855 71.8546L368.908 72.099L369.013 72.5877L369.066 72.8321ZM431.029 78.5938C427.91 77.2819 424.725 76.1226 421.487 75.1208L421.561 74.882L421.708 74.4043L421.782 74.1655C425.052 75.1769 428.267 76.3475 431.416 77.6721L431.319 77.9025L431.126 78.3634L431.029 78.5938ZM445.071 85.8068C442.183 84.0324 439.211 82.4027 436.169 80.9227L436.278 80.6979L436.497 80.2482L436.606 80.0234C439.678 81.5177 442.678 83.1632 445.595 84.9547L445.464 85.1678L445.202 85.5938L445.071 85.8068ZM453.901 91.8824C452.556 90.8504 451.187 89.8528 449.797 88.8904L449.939 88.6849L450.224 88.2737L450.366 88.0682C451.77 89.0399 453.152 90.047 454.51 91.0891C455.868 92.1311 457.198 93.205 458.5 94.3097L458.338 94.5003L458.015 94.8816L457.853 95.0722C456.564 93.9781 455.246 92.9145 453.901 91.8824ZM469.077 106.174C466.86 103.618 464.516 101.17 462.055 98.8388L462.227 98.6573L462.57 98.2942L462.742 98.1127C465.228 100.466 467.594 102.938 469.832 105.519L469.643 105.683L469.266 106.01L469.077 106.174ZM478.481 118.854C476.675 115.985 474.731 113.209 472.656 110.536L472.854 110.383L473.249 110.076L473.446 109.923C475.541 112.622 477.504 115.425 479.327 118.321L479.116 118.454L478.692 118.721L478.481 118.854ZM483.713 128.208C482.963 126.688 482.177 125.188 481.355 123.71L481.574 123.588L482.011 123.345L482.229 123.224C483.059 124.716 483.853 126.231 484.61 127.766C485.367 129.301 486.085 130.853 486.764 132.419L486.535 132.519L486.076 132.718L485.847 132.817C485.174 131.266 484.463 129.729 483.713 128.208ZM491.003 147.738C490.145 144.465 489.126 141.233 487.949 138.054L488.183 137.967L488.652 137.793L488.887 137.707C490.075 140.916 491.104 144.18 491.97 147.484L491.728 147.548L491.244 147.675L491.003 147.738ZM493.829 163.27C493.478 159.898 492.962 156.549 492.284 153.234L492.529 153.183L493.019 153.083L493.264 153.033C493.948 156.38 494.469 159.762 494.823 163.166L494.575 163.192L494.077 163.244L493.829 163.27ZM494.384 173.973C494.384 172.278 494.342 170.585 494.259 168.896L494.509 168.884L495.008 168.859L495.258 168.847C495.342 170.552 495.384 172.262 495.384 173.973H495.134H494.634H494.384ZM390.431 86.068C393.306 86.0523 396.182 86.1776 399.05 86.4442L399.073 86.1953L399.119 85.6975L399.142 85.4485C396.242 85.1788 393.333 85.0521 390.426 85.068L390.427 85.318L390.43 85.818L390.431 86.068ZM377.064 87.164C379.908 86.7103 382.77 86.3972 385.64 86.2248L385.625 85.9753L385.595 85.4762L385.58 85.2266C382.678 85.4009 379.783 85.7177 376.907 86.1764L376.946 86.4233L377.025 86.9171L377.064 87.164ZM403.809 87.0181C405.23 87.2289 406.648 87.4748 408.06 87.7558C409.473 88.0367 410.877 88.352 412.27 88.7011L412.331 88.4586L412.453 87.9736L412.513 87.7311C411.104 87.378 409.684 87.0592 408.255 86.775C406.827 86.4908 405.393 86.2421 403.956 86.0289L403.919 86.2762L403.846 86.7708L403.809 87.0181ZM368.159 89.062C369.55 88.6892 370.948 88.3512 372.353 88.0479L372.3 87.8035L372.194 87.3148L372.142 87.0704C370.721 87.3772 369.307 87.7191 367.9 88.0961L367.965 88.3376L368.094 88.8205L368.159 89.062ZM416.887 89.9923C419.638 90.8433 422.344 91.8283 424.994 92.9428L425.09 92.7124L425.284 92.2515L425.381 92.0211C422.701 90.8938 419.965 89.8977 417.183 89.037L417.109 89.2758L416.961 89.7535L416.887 89.9923ZM429.36 94.9213C431.945 96.1787 434.47 97.5632 436.923 99.0707L437.054 98.8577L437.316 98.4316L437.447 98.2186C434.965 96.694 432.412 95.2937 429.798 94.0221L429.688 94.2469L429.47 94.6965L429.36 94.9213ZM440.938 101.69C442.12 102.508 443.282 103.355 444.425 104.232C445.568 105.109 446.687 106.013 447.783 106.942L447.944 106.752L448.268 106.37L448.429 106.18C447.322 105.24 446.189 104.326 445.034 103.439C443.878 102.552 442.702 101.695 441.507 100.868L441.365 101.074L441.081 101.485L440.938 101.69ZM451.352 110.142C453.443 112.122 455.434 114.202 457.318 116.374L457.506 116.21L457.884 115.882L458.073 115.719C456.168 113.522 454.155 111.419 452.04 109.416L451.868 109.598L451.524 109.961L451.352 110.142ZM460.359 120.08C462.121 122.351 463.773 124.709 465.307 127.146L465.518 127.013L465.942 126.747L466.153 126.613C464.602 124.148 462.931 121.763 461.149 119.466L460.951 119.62L460.556 119.926L460.359 120.08ZM467.749 131.271C468.447 132.527 469.115 133.801 469.752 135.093C470.389 136.385 470.993 137.691 471.565 139.009L471.794 138.909L472.253 138.71L472.482 138.611C471.904 137.278 471.293 135.957 470.649 134.651C470.004 133.344 469.329 132.056 468.623 130.786L468.405 130.907L467.967 131.15L467.749 131.271ZM473.351 143.457C474.35 146.158 475.216 148.904 475.945 151.685L476.187 151.621L476.67 151.495L476.912 151.431C476.175 148.619 475.3 145.842 474.289 143.11L474.054 143.197L473.585 143.371L473.351 143.457ZM477.033 156.354C477.61 159.17 478.048 162.015 478.346 164.88L478.594 164.854L479.092 164.802L479.34 164.776C479.039 161.879 478.596 159.002 478.013 156.153L477.768 156.203L477.278 156.303L477.033 156.354ZM478.711 169.66C478.782 171.095 478.817 172.533 478.817 173.973H479.067H479.567H479.817C479.817 172.517 479.782 171.062 479.71 169.611L479.461 169.623L478.961 169.648L478.711 169.66ZM393.882 101.352C390.316 101.206 386.743 101.323 383.194 101.702L383.168 101.453L383.115 100.956L383.088 100.707C386.686 100.323 390.307 100.205 393.923 100.353L393.913 100.602L393.892 101.102L393.882 101.352ZM405.089 102.688C403.336 102.339 401.574 102.056 399.807 101.838L399.837 101.589L399.899 101.093L399.929 100.845C401.721 101.066 403.507 101.353 405.284 101.707C407.062 102.06 408.822 102.479 410.562 102.96L410.495 103.201L410.362 103.683L410.295 103.924C408.579 103.449 406.842 103.036 405.089 102.688ZM377.314 102.574C375.564 102.907 373.825 103.305 372.098 103.768L372.033 103.526L371.904 103.043L371.839 102.802C373.589 102.333 375.353 101.929 377.127 101.592L377.174 101.837L377.267 102.328L377.314 102.574ZM425.695 110.156C422.561 108.447 419.305 106.972 415.955 105.742L416.041 105.508L416.213 105.038L416.299 104.804C419.696 106.05 422.997 107.546 426.174 109.278L426.054 109.497L425.815 109.936L425.695 110.156ZM435.156 116.311C433.738 115.223 432.283 114.189 430.794 113.212L430.931 113.003L431.206 112.585L431.343 112.376C432.852 113.367 434.327 114.414 435.765 115.517C437.202 116.62 438.596 117.774 439.943 118.975L439.777 119.162L439.444 119.535L439.278 119.722C437.949 118.537 436.574 117.399 435.156 116.311ZM450.334 132.122C448.278 129.204 446.011 126.441 443.55 123.856L443.731 123.684L444.093 123.339L444.274 123.166C446.769 125.787 449.068 128.588 451.151 131.546L450.947 131.69L450.538 131.978L450.334 132.122ZM456.097 141.827C455.306 140.224 454.458 138.653 453.555 137.118L453.771 136.992L454.201 136.738L454.417 136.611C455.332 138.167 456.192 139.759 456.993 141.384C457.795 143.01 458.535 144.661 459.212 146.334L458.98 146.428L458.517 146.616L458.285 146.709C457.617 145.058 456.887 143.43 456.097 141.827ZM462.716 162.721C462.163 159.194 461.352 155.714 460.287 152.306L460.526 152.232L461.003 152.083L461.242 152.008C462.321 155.462 463.143 158.991 463.704 162.566L463.457 162.605L462.963 162.682L462.716 162.721ZM463.592 173.973C463.592 172.186 463.526 170.403 463.395 168.626L463.644 168.608L464.143 168.571L464.392 168.553C464.525 170.353 464.592 172.161 464.592 173.973H464.342H463.842H463.592ZM384.778 116.537C387.598 116.236 390.437 116.143 393.272 116.259L393.282 116.009L393.302 115.51L393.313 115.26C390.429 115.142 387.541 115.237 384.672 115.543L384.698 115.792L384.751 116.289L384.778 116.537ZM397.98 116.645C399.385 116.819 400.785 117.044 402.178 117.321C403.572 117.598 404.951 117.926 406.315 118.303L406.382 118.062L406.516 117.58L406.582 117.34C405.195 116.956 403.791 116.622 402.373 116.34C400.956 116.058 399.532 115.829 398.103 115.653L398.072 115.901L398.011 116.397L397.98 116.645ZM375.959 118.179C377.332 117.812 378.714 117.495 380.104 117.231L380.058 116.985L379.964 116.494L379.917 116.248C378.503 116.518 377.096 116.839 375.701 117.213L375.765 117.455L375.895 117.938L375.959 118.179ZM410.813 119.749C413.476 120.726 416.064 121.898 418.554 123.256L418.674 123.036L418.913 122.597L419.033 122.378C416.499 120.997 413.867 119.804 411.158 118.81L411.072 119.044L410.9 119.514L410.813 119.749ZM422.607 125.685C423.79 126.461 424.946 127.283 426.073 128.147C427.2 129.012 428.292 129.916 429.349 130.858L429.515 130.672L429.848 130.298L430.014 130.112C428.94 129.154 427.828 128.234 426.682 127.354C425.535 126.474 424.359 125.639 423.155 124.849L423.018 125.058L422.744 125.476L422.607 125.685ZM432.744 134.144C434.7 136.198 436.502 138.394 438.135 140.713L438.34 140.569L438.748 140.281L438.953 140.137C437.291 137.778 435.458 135.544 433.468 133.454L433.287 133.627L432.925 133.971L432.744 134.144ZM440.695 144.684C441.413 145.904 442.087 147.152 442.715 148.426C443.343 149.7 443.923 150.994 444.454 152.306L444.686 152.212L445.149 152.025L445.381 151.931C444.841 150.596 444.251 149.279 443.612 147.983C442.973 146.687 442.287 145.418 441.557 144.177L441.342 144.304L440.911 144.557L440.695 144.684ZM446.046 156.754C446.891 159.462 447.536 162.228 447.975 165.031L448.222 164.992L448.716 164.915L448.963 164.876C448.517 162.025 447.86 159.211 447 156.456L446.762 156.531L446.284 156.68L446.046 156.754ZM448.515 169.724C448.62 171.136 448.672 172.553 448.672 173.973H448.922H449.422H449.672C449.672 172.528 449.619 171.086 449.513 169.65L449.263 169.669L448.765 169.706L448.515 169.724Z" fill="#B4EFC9"/>
</svg>
