<svg width="2001" height="1304" viewBox="0 0 2001 1304" fill="none" xmlns="http://www.w3.org/2000/svg">
<path d="M21.2783 0H0.666626V123.976H21.2783C391.455 123.976 720.722 297.659 932.937 567.912L932.954 567.934C950.657 590.417 967.749 613.507 983.556 637.041C1018.81 689.569 1049.67 745.12 1076.14 803.353L1076.16 803.391C1091.13 836.152 1104.53 869.813 1116.34 904.199L1116.35 904.228C1157.27 1022.76 1179.85 1149.91 1179.85 1282.54V1303.16H1316.75V1282.54C1316.75 916.245 1613.76 619.235 1980.05 619.235H2000.67V495.259H1980.05C1660.76 495.259 1386 685.372 1262.59 958.636C1248.56 904.869 1231.08 852.501 1210.58 801.767C1371.04 545.603 1655.58 375.106 1980.05 375.106H2000.67V251.13H1980.05C1639.04 251.13 1336.81 416.82 1149.07 671.889C1127.38 631.885 1103.58 593.121 1077.88 555.814C1290.35 292.384 1615.35 123.796 1980.05 123.796H2000.67V0H1980.05C1587.31 0 1235.89 176.654 1000.67 454.687C765.442 176.654 414.02 0 21.2783 0Z" fill="#33D16B"/>
<path d="M21.2783 251.274H0.666626V375.25H21.2783C349.473 375.25 636.972 549.5 796.198 810.718C814.781 841.222 831.621 873.147 846.537 906.138L846.578 906.227C899.045 1020.81 928.357 1148.21 928.357 1282.69V1303.3H1052.33V1282.69C1052.33 1194.81 1041.35 1109.45 1020.46 1027.9C999.57 945.751 968.762 867.652 929.498 794.736L929.699 794.334L924.486 784.856C908.348 755.514 890.755 727.111 871.898 699.65C686.025 428.989 374.454 251.274 21.2783 251.274Z" fill="#33D16B"/>
<path d="M21.2783 495.233H0.666626V619.208H21.2783C387.577 619.208 684.587 916.219 684.587 1282.52V1303.13H808.563V1282.52C808.563 1190.53 792.523 1102.23 763.589 1020.22L763.583 1020.2C655.396 714.443 364.001 495.233 21.2783 495.233Z" fill="#33D16B"/>
</svg>
